<svg xmlns="http://www.w3.org/2000/svg" width="512" height="512" viewBox="0 0 512 512" role="img" aria-label="UrbanSync AI">
  <defs>
    <linearGradient id="g" x1="0" x2="1" y1="0" y2="1">
      <stop offset="0%" stop-color="#34d399" />
      <stop offset="100%" stop-color="#22d3ee" />
    </linearGradient>
    <linearGradient id="g2" x1="0" x2="0" y1="0" y2="1">
      <stop offset="0%" stop-color="#34d399" stop-opacity="0.3" />
      <stop offset="100%" stop-color="#22d3ee" stop-opacity="0.1" />
    </linearGradient>
  </defs>
  <!-- Background -->
  <rect width="512" height="512" rx="112" fill="#0f172a" />
  <!-- Circuit lines -->
  <g stroke="url(#g2)" stroke-width="2" fill="none" opacity="0.4">
    <line x1="80" y1="256" x2="170" y2="256" />
    <line x1="342" y1="256" x2="432" y2="256" />
    <line x1="256" y1="80" x2="256" y2="170" />
    <line x1="256" y1="342" x2="256" y2="432" />
    <line x1="130" y1="130" x2="183" y2="183" />
    <line x1="329" y1="130" x2="382" y2="83" />
    <line x1="130" y1="382" x2="183" y2="329" />
    <line x1="329" y1="329" x2="382" y2="382" />
  </g>
  <!-- Outer ring -->
  <circle cx="256" cy="256" r="120" fill="none" stroke="url(#g)" stroke-width="3" opacity="0.25" />
  <!-- Inner ring -->
  <circle cx="256" cy="256" r="80" fill="none" stroke="url(#g)" stroke-width="2" opacity="0.15" />
  <!-- Central brain/AI node -->
  <circle cx="256" cy="256" r="54" fill="url(#g)" opacity="0.15" />
  <circle cx="256" cy="256" r="34" fill="url(#g)" opacity="0.25" />
  <!-- Neural nodes -->
  <circle cx="256" cy="172" r="10" fill="url(#g)" />
  <circle cx="256" cy="340" r="10" fill="url(#g)" />
  <circle cx="172" cy="256" r="10" fill="url(#g)" />
  <circle cx="340" cy="256" r="10" fill="url(#g)" />
  <circle cx="197" cy="197" r="8" fill="url(#g)" opacity="0.7" />
  <circle cx="315" cy="197" r="8" fill="url(#g)" opacity="0.7" />
  <circle cx="197" cy="315" r="8" fill="url(#g)" opacity="0.7" />
  <circle cx="315" cy="315" r="8" fill="url(#g)" opacity="0.7" />
  <!-- Neural connections -->
  <g stroke="url(#g)" stroke-width="2.5" fill="none" opacity="0.5">
    <line x1="256" y1="172" x2="197" y2="197" />
    <line x1="256" y1="172" x2="315" y2="197" />
    <line x1="172" y1="256" x2="197" y2="197" />
    <line x1="172" y1="256" x2="197" y2="315" />
    <line x1="340" y1="256" x2="315" y2="197" />
    <line x1="340" y1="256" x2="315" y2="315" />
    <line x1="256" y1="340" x2="197" y2="315" />
    <line x1="256" y1="340" x2="315" y2="315" />
    <line x1="197" y1="197" x2="315" y2="315" />
    <line x1="315" y1="197" x2="197" y2="315" />
  </g>
  <!-- Center dot -->
  <circle cx="256" cy="256" r="14" fill="url(#g)" />
  <!-- AI text -->
  <text x="256" y="448" text-anchor="middle" font-family="Inter, system-ui, sans-serif" font-weight="800" font-size="56" fill="url(#g)" letter-spacing="8">AI</text>
</svg>
